<svg id="Fav_icon" data-name="Fav icon" xmlns="http://www.w3.org/2000/svg" width="16" height="16" viewBox="0 0 16 16">
  <circle id="Elipse_3" data-name="Elipse 3" cx="8" cy="8" r="8" fill="none"/>
  <g id="Logo" transform="translate(-0.111 -57.335)">
    <g id="Grupo_1141" data-name="Grupo 1141" transform="translate(2.111 61.335)">
      <g id="Grupo_1140" data-name="Grupo 1140" transform="translate(0 0)">
        <path id="moustache_4_" data-name="moustache (4)" d="M2.146,181.288A2.148,2.148,0,0,0,0,183.434v.426H2.519a2.148,2.148,0,0,0,1.888-1.126,2.148,2.148,0,0,0,1.888,1.126H8.813v-.426a2.148,2.148,0,0,0-2.146-2.146Z" transform="translate(1.721 -176.114)" fill="#fff"/>
        <path id="sunglasses" d="M11.661,11.916H7.827c-.88.023-.99.306-1.14.547H5.751c-.15-.24-.378-.547-1.261-.547H.849A.942.942,0,0,0,0,12.775v1.878a2.064,2.064,0,0,0,2.061,2.061H3.08A2.774,2.774,0,0,0,5.859,13.89a.715.715,0,0,1,.349-.122.715.715,0,0,1,.349.122,2.871,2.871,0,0,0,2.779,2.824h1.019a2.064,2.064,0,0,0,2.061-2.061V12.664a.862.862,0,0,0-.755-.748Zm-1.306,4.07H9.337a1.856,1.856,0,0,1-2.061-2.061V12.886a.365.365,0,0,1,.39-.343h3.448c.458,0,.575.27.575.477v1.633A1.335,1.335,0,0,1,10.355,15.986Zm-7.275,0H2.061A1.335,1.335,0,0,1,.727,14.653V13.024c0-.242.118-.481.583-.481H4.718c.227,0,.424.054.424.343v1.039A1.824,1.824,0,0,1,3.08,15.986Zm2.8-3.1h.679l-.01.542a.879.879,0,0,0-.34-.085.879.879,0,0,0-.339.085Zm0,0" transform="translate(0 -11.916)" fill="#fff"/>
      </g>
    </g>
  </g>
</svg>
