<svg xmlns="http://www.w3.org/2000/svg" width="124" height="61" viewBox="0 0 124 61">
  <g id="Logo" transform="translate(35.966 -61.335)">
    <g id="Grupo_1141" data-name="Grupo 1141" transform="translate(81.631 61.335)">
      <g id="Grupo_1140" data-name="Grupo 1140" transform="translate(-79.521 0)">
        <path id="moustache_4_" data-name="moustache (4)" d="M8.1,181.288a8.1,8.1,0,0,0-8.1,8.1v1.609H9.5a8.1,8.1,0,0,0,7.122-4.248,8.1,8.1,0,0,0,7.122,4.248h9.5v-1.609a8.1,8.1,0,0,0-8.1-8.1Z" transform="translate(6.492 -161.768)" fill="#011627"/>
        <path id="sunglasses" d="M44,11.917H29.533c-3.319.086-3.735,1.156-4.3,2.062H21.7c-.566-.906-1.426-2.062-4.758-2.062H3.2A3.556,3.556,0,0,0,0,15.156V22.24a7.786,7.786,0,0,0,7.777,7.777H11.62c6.87,0,10.043-5.256,10.486-10.653a2.7,2.7,0,0,1,1.317-.462,2.7,2.7,0,0,1,1.317.462c.444,5.4,4.162,10.653,10.486,10.653H39.07a7.786,7.786,0,0,0,7.777-7.777v-7.5A3.253,3.253,0,0,0,44,11.917ZM39.07,27.272H35.227c-5.729,0-7.777-3.489-7.777-7.777V15.573a1.375,1.375,0,0,1,1.47-1.294H41.931c1.729,0,2.171,1.017,2.171,1.8V22.24A5.038,5.038,0,0,1,39.07,27.272Zm-27.45,0H7.777A5.038,5.038,0,0,1,2.745,22.24V16.093c.017-.911.447-1.814,2.2-1.814H17.8c.856,0,1.6.2,1.6,1.294v3.922C19.4,23.784,17.627,27.272,11.62,27.272Zm10.558-11.7h2.562L24.7,17.619a3.318,3.318,0,0,0-1.281-.32,3.317,3.317,0,0,0-1.281.32Zm0,0" transform="translate(0 -11.916)" fill="#011627"/>
      </g>
      <text id="Mr._BELLY" data-name="Mr. BELLY" transform="translate(-117.597 55)" fill="#011627" font-size="25" font-family="Quicksand-Bold, Quicksand" font-weight="700"><tspan x="0" y="0">MR. BELLY</tspan></text>
    </g>
  </g>
</svg>
